<?xml version="1.0" encoding="UTF-8" standalone="no"?>
<!-- Created with Inkscape (http://www.inkscape.org/) -->
<svg
   xmlns:dc="http://purl.org/dc/elements/1.1/"
   xmlns:cc="http://web.resource.org/cc/"
   xmlns:rdf="http://www.w3.org/1999/02/22-rdf-syntax-ns#"
   xmlns:svg="http://www.w3.org/2000/svg"
   xmlns="http://www.w3.org/2000/svg"
   xmlns:sodipodi="http://sodipodi.sourceforge.net/DTD/sodipodi-0.dtd"
   xmlns:inkscape="http://www.inkscape.org/namespaces/inkscape"
   width="744.09448819"
   height="1052.3622047"
   id="svg2"
   sodipodi:version="0.32"
   inkscape:version="0.45.1"
   sodipodi:docbase="/home/lucio/MyWorks/Parancoe_google/parancoe/examples/jugevents/jugevents/src/main/webapp/images"
   sodipodi:docname="question.svg"
   inkscape:output_extension="org.inkscape.output.svg.inkscape"
   inkscape:export-filename="/home/lucio/MyWorks/Parancoe_google/parancoe/examples/jugevents/jugevents/src/main/webapp/images/question16x16.png"
   inkscape:export-xdpi="4.3299999"
   inkscape:export-ydpi="4.3299999">
  <defs
     id="defs4">
    <linearGradient
       id="linearGradient4126">
      <stop
         style="stop-color:#000000;stop-opacity:1;"
         offset="0"
         id="stop4128" />
      <stop
         style="stop-color:#000000;stop-opacity:0;"
         offset="1"
         id="stop4130" />
    </linearGradient>
  </defs>
  <sodipodi:namedview
     id="base"
     pagecolor="#ffffff"
     bordercolor="#666666"
     borderopacity="1.0"
     inkscape:pageopacity="0.0"
     inkscape:pageshadow="2"
     inkscape:zoom="0.35"
     inkscape:cx="375"
     inkscape:cy="520"
     inkscape:document-units="px"
     inkscape:current-layer="layer1"
     inkscape:window-width="872"
     inkscape:window-height="624"
     inkscape:window-x="0"
     inkscape:window-y="45" />
  <metadata
     id="metadata7">
    <rdf:RDF>
      <cc:Work
         rdf:about="">
        <dc:format>image/svg+xml</dc:format>
        <dc:type
           rdf:resource="http://purl.org/dc/dcmitype/StillImage" />
      </cc:Work>
    </rdf:RDF>
  </metadata>
  <g
     inkscape:label="Livello 1"
     inkscape:groupmode="layer"
     id="layer1">
    <g
       id="g4255"
       inkscape:export-filename="/home/lucio/MyWorks/Parancoe_google/parancoe/examples/jugevents/jugevents/src/main/webapp/images/question16x16.png"
       inkscape:export-xdpi="4.3308182"
       inkscape:export-ydpi="4.3308182">
      <rect
         y="274.86615"
         x="168.76532"
         height="331.55756"
         width="331.53958"
         id="rect4228"
         style="fill:#ffffff;fill-opacity:1;fill-rule:nonzero;stroke:none;stroke-width:0.9434309;stroke-linecap:round;stroke-linejoin:round;stroke-miterlimit:4;stroke-dasharray:none;stroke-dashoffset:0;stroke-opacity:1" />
      <g
         transform="translate(10.235852,-25.949995)"
         id="g4250">
        <path
           style="fill:#0000b5;fill-opacity:1;fill-rule:nonzero;stroke:#005a93;stroke-width:1;stroke-linecap:round;stroke-linejoin:round;stroke-miterlimit:4;stroke-dashoffset:0;stroke-opacity:1"
           d="M 327.65188,300.86137 C 323.69528,300.80538 319.74137,300.88711 315.77688,301.14262 C 250.11978,303.61847 189.09424,349.47737 167.96438,411.61137 C 146.11256,471.55986 163.22812,543.12849 209.99563,586.58012 C 256.14211,631.74886 329.61638,645.12248 388.77688,619.33012 C 448.99418,594.63085 490.92242,531.80788 490.02688,466.64262 L 489.96438,462.20512 C 489.32625,437.20219 482.96861,412.35703 471.40188,390.17387 C 444.51939,337.02504 387.00092,301.70129 327.65188,300.86137 z "
           id="path2160" />
        <path
           style="fill:none;fill-opacity:1;fill-rule:nonzero;stroke:#005a93;stroke-width:1;stroke-linecap:round;stroke-linejoin:round;stroke-miterlimit:4;stroke-dashoffset:0;stroke-opacity:1"
           d="M 270.43313,362.64262 C 267.62298,364.04839 264.8747,365.56576 262.21438,367.20512 C 259.55406,368.84448 256.96624,370.59933 254.46438,372.45512 C 251.96252,374.31091 249.54916,376.27506 247.21438,378.33012 C 244.8796,380.38518 242.62345,382.53045 240.46438,384.76762 C 238.30531,387.00479 236.25161,389.33424 234.27688,391.73637 C 232.30215,394.1385 230.43365,396.62395 228.65188,399.17387 C 226.87011,401.72379 225.16955,404.33706 223.58938,407.01762 C 222.00921,409.69818 220.55308,412.44233 219.18313,415.23637 C 217.81318,418.03041 216.52174,420.87726 215.37063,423.76762 C 214.21952,426.65798 213.20051,429.57934 212.27688,432.54887 C 211.35325,435.5184 210.52691,438.54859 209.83938,441.58012 C 209.15185,444.61165 208.59469,447.65999 208.15188,450.73637 C 207.70907,453.81275 207.40383,456.91355 207.21438,460.01762 C 207.02493,463.12169 206.95435,466.21552 207.02688,469.33012 C 207.09941,472.44472 207.30874,475.5659 207.65188,478.67387 C 207.99502,481.78184 208.467,484.90219 209.08938,487.98637 C 209.54141,490.56557 210.07819,493.11059 210.71438,495.64262 C 211.35057,498.17465 212.0891,500.66627 212.90188,503.14262 C 213.71466,505.61897 214.60757,508.07421 215.58938,510.48637 C 216.57119,512.89853 217.63361,515.27191 218.77688,517.61137 C 219.92015,519.95083 221.13597,522.25938 222.43313,524.51762 C 223.73029,526.77586 225.11464,529.00536 226.55813,531.17387 C 228.00162,533.34238 229.50712,535.44735 231.08938,537.51762 C 232.67164,539.58789 234.34468,541.61661 236.05813,543.58012 C 237.77158,545.54363 239.53355,547.45063 241.37063,549.29887 C 243.20771,551.14711 245.10498,552.91816 247.05813,554.64262 C 249.01128,556.36708 251.02773,558.05046 253.08938,559.64262 C 255.15103,561.23478 257.27055,562.75377 259.43313,564.20512 C 261.59571,565.65647 263.80218,567.02809 266.05813,568.33012 C 268.31408,569.63215 270.62263,570.87343 272.96438,572.01762 C 275.30613,573.16181 277.6694,574.19602 280.08938,575.17387 C 282.50936,576.15172 284.97373,577.05839 287.46438,577.86137 C 287.46438,561.12179 287.46438,544.3822 287.46438,527.64262 C 308.87063,527.64262 330.27688,527.64262 351.68313,527.64262 C 351.68313,545.28845 351.68313,562.93429 351.68313,580.58012 C 354.95755,579.85149 358.17174,578.95408 361.33938,577.92387 C 364.50702,576.89366 367.63652,575.73733 370.68313,574.42387 C 373.72974,573.11041 376.7093,571.6585 379.62063,570.08012 C 382.53196,568.50174 385.35883,566.78008 388.12063,564.95512 C 390.88243,563.13016 393.58511,561.19584 396.18313,559.14262 C 398.78115,557.0894 401.29439,554.93701 403.71438,552.67387 C 406.13437,550.41073 408.45541,548.03485 410.68313,545.58012 C 412.91085,543.12539 415.03694,540.58311 417.05813,537.95512 C 419.07932,535.32713 420.97646,532.61304 422.77688,529.83012 C 424.5773,527.0472 426.27398,524.18714 427.83938,521.26762 C 429.40478,518.3481 430.867,515.36791 432.18313,512.33012 C 433.49926,509.29233 434.66176,506.21785 435.71438,503.08012 C 436.767,499.94239 437.68953,496.73695 438.46438,493.51762 C 439.23923,490.29829 439.8878,487.05022 440.37063,483.76762 C 440.85346,480.48502 441.16281,477.18892 441.33938,473.86137 C 441.51595,470.53382 441.54582,467.18428 441.40188,463.83012 C 441.33237,459.36023 440.97902,454.90223 440.37063,450.48637 C 439.76224,446.07051 438.89685,441.70395 437.77688,437.39262 C 436.65691,433.08129 435.28737,428.83016 433.68313,424.67387 C 432.07889,420.51758 430.24435,416.43712 428.18313,412.48637 C 426.12191,408.53562 423.83028,404.71232 421.33938,401.01762 C 418.84848,397.32292 416.17015,393.74952 413.27688,390.36137 C 410.38361,386.97322 407.29523,383.76746 404.02688,380.73637 C 400.75853,377.70528 397.29926,374.85989 393.68313,372.23637 C 395.10071,373.52388 396.43265,374.87412 397.68313,376.29887 C 398.93361,377.72362 400.10134,379.22382 401.18313,380.76762 C 402.26492,382.31142 403.27161,383.90422 404.18313,385.54887 C 405.09465,387.19352 405.91223,388.88405 406.65188,390.61137 C 407.39153,392.33869 408.05442,394.10082 408.62063,395.89262 C 409.18684,397.68442 409.66696,399.52329 410.05813,401.36137 C 410.4493,403.19945 410.74983,405.05769 410.96438,406.92387 C 411.17893,408.79005 411.30304,410.64153 411.33938,412.51762 C 411.37572,414.39371 411.32658,416.27481 411.18313,418.14262 C 411.03968,420.01043 410.78922,421.86378 410.46438,423.70512 C 410.13954,425.54646 409.72218,427.3772 409.21438,429.17387 C 408.70658,430.97054 408.12549,432.75255 407.43313,434.48637 C 406.74077,436.22019 405.93663,437.89609 405.05813,439.54887 C 404.17963,441.20165 403.21811,442.80782 402.15188,444.36137 C 401.08565,445.91492 399.93868,447.42524 398.68313,448.86137 C 397.42758,450.2975 396.06708,451.68585 394.62063,452.98637 C 392.97513,454.90718 391.18864,456.71116 389.33938,458.45512 C 387.49012,460.19908 385.5645,461.88408 383.58938,463.51762 C 379.63914,466.78469 375.5132,469.88753 371.52688,473.11137 C 369.53372,474.72329 367.59972,476.34814 365.71438,478.04887 C 363.82904,479.7496 362.00775,481.53667 360.30813,483.39262 C 358.60851,485.24857 357.02539,487.19003 355.58938,489.26762 C 354.15337,491.34521 352.87138,493.55823 351.77688,495.92387 C 351.50466,498.69306 351.23248,501.24452 350.80813,503.48637 C 350.59596,504.60729 350.34839,505.63585 350.02688,506.58012 C 349.70537,507.52439 349.31776,508.37364 348.83938,509.11137 C 348.361,509.8491 347.80342,510.48506 347.12063,510.98637 C 346.43784,511.48768 345.61786,511.87636 344.68313,512.11137 C 343.7484,512.34638 342.69858,512.42254 341.46438,512.36137 C 340.23018,512.3002 338.82685,512.09235 337.24563,511.70512 C 321.33045,511.70512 305.4108,511.70512 289.49563,511.70512 C 289.32757,509.21879 289.26923,506.7191 289.30813,504.20512 C 289.34703,501.69114 289.48095,499.17732 289.74563,496.67387 C 290.01031,494.17042 290.39261,491.65987 290.90188,489.20512 C 291.41115,486.75037 292.03545,484.32299 292.80813,481.95512 C 293.58081,479.58725 294.50323,477.29168 295.55813,475.04887 C 296.61303,472.80606 297.82718,470.62845 299.18313,468.54887 C 300.53908,466.46929 302.03858,464.48954 303.71438,462.61137 C 305.39018,460.7332 307.23115,458.9687 309.24563,457.33012 C 310.7063,455.74405 312.2385,454.23218 313.83938,452.76762 C 315.44026,451.30306 317.12293,449.87713 318.80813,448.48637 C 322.17852,445.70486 325.6546,443.00886 329.02688,440.23637 C 330.71302,438.85012 332.36161,437.44191 333.96438,435.98637 C 335.56715,434.53083 337.12588,433.02765 338.58938,431.45512 C 340.05288,429.88259 341.41479,428.25484 342.68313,426.51762 C 343.95147,424.7804 345.10334,422.93599 346.12063,420.98637 C 346.50378,419.81726 346.77979,418.67842 346.93313,417.58012 C 347.08647,416.48182 347.14565,415.44646 347.08938,414.42387 C 347.03311,413.40128 346.86633,412.39712 346.62063,411.45512 C 346.37493,410.51312 346.03557,409.62413 345.62063,408.76762 C 345.20569,407.91111 344.71588,407.09626 344.15188,406.33012 C 343.58788,405.56398 342.9385,404.84475 342.24563,404.17387 C 340.8599,402.83212 339.24446,401.69898 337.46438,400.76762 C 335.6843,399.83626 333.75855,399.09321 331.74563,398.61137 C 329.73271,398.12953 327.6424,397.88583 325.55813,397.89262 C 323.47386,397.89941 321.39601,398.17058 319.40188,398.70512 C 317.40775,399.23966 315.48811,400.04121 313.74563,401.14262 C 312.77897,401.33865 311.89523,401.62294 311.08938,401.98637 C 310.28353,402.3498 309.566,402.79168 308.90188,403.29887 C 307.57364,404.31325 306.4965,405.60125 305.62063,407.04887 C 304.74476,408.49649 304.07183,410.1071 303.49563,411.79887 C 302.91943,413.49064 302.45611,415.27079 302.02688,417.01762 C 301.59765,418.76445 301.18059,420.46732 300.74563,422.08012 C 300.31067,423.69292 299.83902,425.19669 299.24563,426.48637 C 298.65224,427.77605 297.96265,428.86515 297.05813,429.64262 C 296.60587,430.03136 296.08555,430.35489 295.52688,430.58012 C 294.96821,430.80535 294.3673,430.91703 293.68313,430.95512 C 274.83205,428.61678 255.97172,426.29346 237.12063,423.95512 C 237.36304,420.97394 237.75194,417.98237 238.27688,415.01762 C 238.80182,412.05287 239.46763,409.11181 240.27688,406.20512 C 241.08613,403.29843 242.02527,400.44963 243.12063,397.64262 C 244.21599,394.83561 245.45613,392.05832 246.83938,389.39262 C 248.22263,386.72692 249.7602,384.15663 251.43313,381.67387 C 253.10606,379.19111 254.90623,376.80706 256.87063,374.54887 C 258.83503,372.29068 260.95672,370.16586 263.21438,368.17387 C 265.47204,366.18188 267.88042,364.32679 270.43313,362.64262 z "
           id="path4159" />
        <path
           style="fill:#ffffff;fill-opacity:1;fill-rule:nonzero;stroke:#005a93;stroke-width:1.28710091;stroke-linecap:round;stroke-linejoin:round;stroke-miterlimit:4;stroke-dashoffset:0;stroke-opacity:1"
           d="M 254.98338,331.3576 C 251.69778,333.5253 248.59796,335.91298 245.69212,338.47688 C 242.78628,341.04077 240.05545,343.77563 237.52707,346.68214 C 234.99869,349.58866 232.68169,352.65717 230.52846,355.85274 C 228.37523,359.0483 226.39623,362.35652 224.61584,365.78755 C 222.83546,369.21857 221.23928,372.79322 219.82944,376.40613 C 218.4196,380.01903 217.21083,383.68573 216.16924,387.42693 C 215.12766,391.16813 214.27069,394.95357 213.59504,398.76951 C 212.91939,402.58544 212.41884,406.43589 212.10683,410.27297 C 236.37009,413.28265 260.64523,416.273 284.90847,419.28268 C 285.78907,419.23365 286.5625,419.08991 287.28157,418.80001 C 288.00063,418.51012 288.67033,418.0937 289.25244,417.59336 C 290.41665,416.59267 291.30422,415.19089 292.06797,413.53094 C 292.83173,411.871 293.43879,409.93549 293.99862,407.85966 C 294.55846,405.78382 295.09526,403.59205 295.64772,401.34371 C 296.20018,399.09536 296.79652,396.80413 297.53815,394.62665 C 298.27978,392.44917 299.14591,390.37615 300.27324,388.51292 C 301.40057,386.64969 302.78696,384.9919 304.49654,383.68629 C 305.35133,383.03349 306.27486,382.46474 307.31207,381.99697 C 308.34928,381.5292 309.48675,381.16329 310.73093,380.91098 C 312.97368,379.49336 315.44445,378.46168 318.0111,377.77367 C 320.57775,377.08567 323.25215,376.73664 325.93481,376.7279 C 328.61748,376.71916 331.30792,377.03283 333.89875,377.65301 C 336.48958,378.27318 338.96822,379.22956 341.25936,380.42832 C 343.5505,381.62707 345.62973,383.08554 347.41331,384.81251 C 348.3051,385.676 349.14092,386.60172 349.86684,387.58782 C 350.59277,388.57392 351.2232,389.62271 351.75727,390.72513 C 352.29134,391.82754 352.72813,392.97176 353.04438,394.18421 C 353.36062,395.39666 353.57528,396.68911 353.6477,398.00529 C 353.72013,399.32147 353.64396,400.65408 353.44659,402.0677 C 353.24923,403.48132 352.89398,404.94713 352.40082,406.45189 C 351.09147,408.96125 349.6089,411.33519 347.97642,413.57117 C 346.34393,415.80714 344.59102,417.90222 342.70735,419.92623 C 340.82367,421.95023 338.81743,423.88498 336.75451,425.7584 C 334.69158,427.63183 332.56968,429.44434 330.39944,431.22858 C 326.05898,434.79706 321.58491,438.26708 317.24688,441.84716 C 315.07786,443.63721 312.91209,445.47253 310.8516,447.35756 C 308.79111,449.2426 306.81901,451.18853 304.93898,453.22996 C 302.34614,455.33898 299.97663,457.61007 297.8197,460.02746 C 295.66278,462.44486 293.73277,464.99299 291.98753,467.66962 C 290.24228,470.34625 288.67955,473.14906 287.32179,476.03578 C 285.96403,478.9225 284.77678,481.87713 283.78226,484.92482 C 282.78774,487.97251 281.98421,491.09679 281.32872,494.2563 C 280.67324,497.41581 280.18118,500.64714 279.84051,503.86934 C 279.49984,507.09153 279.32748,510.32707 279.27741,513.56281 C 279.22734,516.79856 279.30243,520.01591 279.51874,523.21607 C 300.00317,523.21607 320.49336,523.21607 340.9778,523.21607 C 343.01299,523.71447 344.81922,523.982 346.40776,524.06073 C 347.9963,524.13946 349.34753,524.04144 350.55062,523.73895 C 351.75371,523.43647 352.80911,522.9362 353.68793,522.29097 C 354.56675,521.64573 355.28441,520.82718 355.90013,519.87765 C 356.51585,518.92812 357.01475,517.83505 357.42856,516.61968 C 357.84238,515.40431 358.16103,514.08045 358.43411,512.63771 C 358.98029,509.75222 359.33061,506.46824 359.68099,502.90401 C 361.08972,499.85919 362.73977,497.01081 364.58806,494.33674 C 366.43635,491.66268 368.47399,489.16382 370.66157,486.77503 C 372.84915,484.38623 375.19333,482.08609 377.61996,479.89708 C 380.04658,477.70807 382.53583,475.61672 385.10123,473.54202 C 390.23203,469.39261 395.54253,465.39895 400.62688,461.1939 C 403.16906,459.09137 405.64753,456.9226 408.02771,454.67795 C 410.4079,452.4333 412.70729,450.11139 414.82522,447.63912 C 416.68694,445.96522 418.43804,444.17827 420.05406,442.32983 C 421.67008,440.48138 423.14635,438.53745 424.51869,436.53787 C 425.89104,434.5383 427.12861,432.47099 428.25933,430.3437 C 429.39005,428.2164 430.42506,426.05935 431.3162,423.82775 C 432.20733,421.59615 432.95525,419.30252 433.60884,416.99003 C 434.26243,414.67753 434.79962,412.32119 435.21772,409.95119 C 435.63582,407.5812 435.95819,405.19576 436.14282,402.7917 C 436.32746,400.38764 436.39071,397.96647 436.34393,395.55175 C 436.29716,393.13704 436.13742,390.754 435.86127,388.35203 C 435.58512,385.95007 435.19831,383.55833 434.69484,381.19254 C 434.19136,378.82674 433.5734,376.45993 432.84463,374.1537 C 432.11586,371.84748 431.26265,369.57944 430.31065,367.3562 C 429.35864,365.13297 428.30634,362.95708 427.13312,360.84025 C 425.9599,358.72342 424.66419,356.67333 423.27182,354.6863 C 421.87944,352.69928 420.37646,350.76837 418.76696,348.93457 C 417.15747,347.10077 415.44313,345.36288 413.61856,343.70572 C 418.27288,347.08246 422.72531,350.74476 426.93201,354.64608 C 431.1387,358.5474 435.11376,362.67353 438.83769,367.03443 C 442.56162,371.39532 446.0089,375.99464 449.21494,380.75009 C 452.42098,385.50555 455.37054,390.42652 458.02354,395.51153 C 460.67654,400.59655 463.03777,405.84851 465.10259,411.19807 C 467.16741,416.54764 468.93015,422.01927 470.37166,427.56839 C 471.81318,433.1175 472.92702,438.73771 473.71008,444.42136 C 474.49314,450.10502 474.94794,455.84292 475.0374,461.59612 C 475.22267,465.91326 475.18422,470.22445 474.95696,474.50735 C 474.7297,478.79024 474.33153,483.03265 473.71008,487.25769 C 473.08863,491.48273 472.25385,495.66332 471.25654,499.80692 C 470.25923,503.95053 469.07184,508.07625 467.71702,512.11482 C 466.36219,516.1534 464.86593,520.11057 463.17194,524.02051 C 461.47795,527.93045 459.59593,531.76626 457.5811,535.52397 C 455.56627,539.28169 453.38247,542.96287 451.06515,546.54477 C 448.74783,550.12667 446.30602,553.61998 443.70454,557.00247 C 441.10307,560.38496 438.36657,563.65713 435.49927,566.81661 C 432.63197,569.9761 429.64456,573.03409 426.52979,575.94698 C 423.41502,578.85987 420.18022,581.63022 416.83631,584.27292 C 413.4924,586.91562 410.01378,589.40528 406.45906,591.75419 C 402.90435,594.1031 399.26588,596.31905 395.5187,598.35058 C 391.77153,600.38212 387.93653,602.25087 384.01524,603.94143 C 380.09395,605.63198 376.06596,607.1203 371.98889,608.44628 C 367.91182,609.77226 363.77483,610.92732 359.56032,611.86514 C 359.56032,589.15318 359.56032,566.4412 359.56032,543.72924 C 332.00832,543.72924 304.45632,543.72924 276.90432,543.72924 C 276.90432,565.27477 276.90432,586.82031 276.90432,608.36584 C 273.6986,607.33232 270.5267,606.16534 267.41195,604.90675 C 264.29719,603.64816 261.25542,602.31703 258.24135,600.84434 C 255.22728,599.37165 252.25595,597.774 249.35231,596.09816 C 246.44868,594.42231 243.60873,592.6569 240.82527,590.78886 C 238.04181,588.92083 235.31378,586.96574 232.66022,584.91647 C 230.00667,582.8672 227.4113,580.70052 224.8974,578.48096 C 222.3835,576.26141 219.94152,573.98189 217.57701,571.60302 C 215.2125,569.22415 212.94467,566.76964 210.73929,564.24241 C 208.5339,561.71517 206.38053,559.10401 204.344,556.43936 C 202.30748,553.77471 200.36975,551.06541 198.51183,548.27431 C 196.65391,545.48322 194.87211,542.61363 193.20254,539.70705 C 191.53296,536.80047 189.96808,533.82913 188.49658,530.81801 C 187.02507,527.80689 185.65763,524.75211 184.39394,521.64742 C 183.13025,518.54272 181.98099,515.38258 180.93486,512.19527 C 179.88873,509.00796 178.93817,505.80099 178.11933,502.54201 C 177.30048,499.28303 176.60959,496.00734 176.02779,492.68765 C 175.22672,488.718 174.61923,484.70179 174.17758,480.70152 C 173.73592,476.70125 173.46649,472.68398 173.37314,468.67517 C 173.27979,464.66637 173.37063,460.6843 173.61447,456.68904 C 173.85831,452.69379 174.25119,448.70275 174.82113,444.74314 C 175.39107,440.78353 176.10819,436.86001 176.99311,432.95812 C 177.87803,429.05624 178.94162,425.15608 180.13042,421.33399 C 181.31923,417.51191 182.63079,413.75182 184.11239,410.03164 C 185.59398,406.31145 187.2562,402.64727 189.01946,399.05106 C 190.78272,395.45485 192.65691,391.92285 194.69075,388.4727 C 196.72459,385.02255 198.91338,381.65901 201.2067,378.377 C 203.50001,375.095 205.90496,371.89597 208.44664,368.80419 C 210.98832,365.71241 213.63163,362.71417 216.41058,359.83471 C 219.18952,356.95524 222.09341,354.19406 225.09851,351.54899 C 228.1036,348.90392 231.20984,346.37587 234.42999,343.98728 C 237.65013,341.59869 240.98092,339.34002 244.40502,337.23 C 247.82912,335.11997 251.36643,333.16697 254.98338,331.3576 z "
           id="path4157" />
      </g>
    </g>
  </g>
</svg>
